<?xml version="1.0" encoding="UTF-8" standalone="no"?>
<!-- Created with Inkscape (http://www.inkscape.org/) -->

<svg
   xmlns:dc="http://purl.org/dc/elements/1.1/"
   xmlns:cc="http://creativecommons.org/ns#"
   xmlns:rdf="http://www.w3.org/1999/02/22-rdf-syntax-ns#"
   xmlns:svg="http://www.w3.org/2000/svg"
   xmlns="http://www.w3.org/2000/svg"
   xmlns:sodipodi="http://sodipodi.sourceforge.net/DTD/sodipodi-0.dtd"
   xmlns:inkscape="http://www.inkscape.org/namespaces/inkscape"
   width="11mm"
   height="9mm"
   viewBox="0 0 38.976361 31.88975"
   id="svg2"
   version="1.1"
   inkscape:version="0.91 r"
   sodipodi:docname="logo.svg">
  <defs
     id="defs4" />
  <sodipodi:namedview
     id="base"
     pagecolor="#ffffff"
     bordercolor="#666666"
     borderopacity="1.0"
     inkscape:pageopacity="0.0"
     inkscape:pageshadow="2"
     inkscape:zoom="1.4"
     inkscape:cx="335.11198"
     inkscape:cy="98.656946"
     inkscape:document-units="px"
     inkscape:current-layer="layer1"
     showgrid="false"
     inkscape:window-width="1920"
     inkscape:window-height="1028"
     inkscape:window-x="0"
     inkscape:window-y="0"
     inkscape:window-maximized="1" />
  <metadata
     id="metadata7">
    <rdf:RDF>
      <cc:Work
         rdf:about="">
        <dc:format>image/svg+xml</dc:format>
        <dc:type
           rdf:resource="http://purl.org/dc/dcmitype/StillImage" />
        <dc:title></dc:title>
      </cc:Work>
    </rdf:RDF>
  </metadata>
  <g
     inkscape:label="Layer 1"
     inkscape:groupmode="layer"
     id="layer1"
     transform="translate(0,-1020.4731)">
    <path
       style="font-style:normal;font-weight:normal;font-size:40px;line-height:125%;font-family:sans-serif;letter-spacing:0px;word-spacing:0px;fill:#41434a;fill-opacity:1;stroke:none;stroke-width:1px;stroke-linecap:butt;stroke-linejoin:miter;stroke-opacity:1"
       d="m 17.680709,1022.2384 0,29.1602 10.46876,0 c 3.26821,0 5.78776,-0.7097 7.55859,-2.1289 1.77083,-1.4193 2.65625,-3.431 2.65625,-6.0352 0,-1.9792 -0.54037,-3.6263 -1.6211,-4.9414 -1.0677,-1.3281 -2.57161,-2.2005 -4.51171,-2.6172 1.61458,-0.2604 2.83854,-0.918 3.67187,-1.9727 0.83333,-1.0546 1.25,-2.4739 1.25,-4.2578 0,-2.3047 -0.81381,-4.082 -2.4414,-5.332 -1.62762,-1.25 -3.94532,-1.875 -6.95313,-1.875 l -10.07813,0 z m 3.94532,3.2422 5.83984,0 c 1.92708,0 3.35938,0.3646 4.29688,1.0937 0.95052,0.7292 1.42578,1.8295 1.42578,3.3008 0,1.4844 -0.47526,2.5912 -1.42578,3.3203 -0.9375,0.7162 -2.3698,1.0743 -4.29688,1.0743 l -5.83984,0 0,-8.7891 z m 0,11.9922 6.32812,0 c 2.1224,0 3.69141,0.4362 4.70703,1.3086 1.02865,0.8593 1.54297,2.2005 1.54297,4.0234 0,1.8099 -0.51432,3.1576 -1.54297,4.043 -1.01562,0.8724 -2.58463,1.3086 -4.70703,1.3086 l -6.32812,0 0,-10.6836 z"
       id="text3336"
       inkscape:connector-curvature="0"
       inkscape:export-xdpi="90"
       inkscape:export-ydpi="90" />
    <path
       style="font-style:normal;font-weight:normal;font-size:40px;line-height:125%;font-family:sans-serif;letter-spacing:0px;word-spacing:0px;fill:#0163a7;fill-opacity:1;stroke:none;stroke-width:1px;stroke-linecap:butt;stroke-linejoin:miter;stroke-opacity:1"
       d="m 21.528279,1051.4 -0.0371,-29.1601 -10.46876,0.013 c -3.2682104,0 -5.7868405,0.717 -7.5558705,2.1385 -1.76902,1.4216 -2.65187997,3.4344 -2.64856997,6.0386 0.003,1.9791 0.54498997,3.6256 1.62739997,4.9393 1.06938,1.3268 2.5744,2.1973 4.51503,2.6114 -1.61425,0.2625 -2.83736,0.9216 -3.66935,1.9774 -0.83199,1.0557 -1.24685,2.4755 -1.24458,4.2594 0.003,2.3047 0.819,4.081 2.44818,5.3289 1.62921,1.2479 3.9477101,1.87 6.9555205,1.8661 l 10.07812,-0.013 z m -3.94945,-3.2371 -5.83984,0.01 c -1.9270804,0 -3.3598404,-0.3603 -4.2982604,-1.0883 -0.9514501,-0.728 -1.4281101,-1.8276 -1.4299801,-3.299 -0.002,-1.4843 0.47196,-2.5917 1.4215501,-3.3221 0.93659,-0.7173 2.36843,-1.0772 4.2955004,-1.0797 l 5.83984,-0.01 0.0112,8.7891 z m -0.0153,-11.9922 -6.32812,0.01 c -2.1224004,0 -3.6919604,-0.4315 -4.7086905,-1.3026 -1.02975,-0.8581 -1.54577,-2.1986 -1.54809,-4.0215 -0.002,-1.8099 0.5103,-3.1582 1.53782,-4.0449 1.0145001,-0.8737 2.5829601,-1.3119 4.7053605,-1.3146 l 6.32812,-0.01 0.0136,10.6836 z"
       id="text3336-9"
       inkscape:connector-curvature="0"
       inkscape:transform-center-x="10.2409"
       inkscape:transform-center-y="-14.388397"
       inkscape:export-xdpi="90"
       inkscape:export-ydpi="90" />
    <text
       xml:space="preserve"
       style="font-style:normal;font-weight:normal;font-size:40px;line-height:125%;font-family:sans-serif;letter-spacing:0px;word-spacing:0px;fill:#0163a7;fill-opacity:1;stroke:none;stroke-width:1px;stroke-linecap:butt;stroke-linejoin:miter;stroke-opacity:1"
       x="46.234596"
       y="1050.1324"
       id="text4172"
       sodipodi:linespacing="125%"
       inkscape:export-xdpi="90"
       inkscape:export-ydpi="90"><tspan
         sodipodi:role="line"
         id="tspan4174"
         x="46.234596"
         y="1050.1324"
         style="font-size:35px;fill:#0163a7;fill-opacity:1">COMPANY</tspan></text>
    <text
       xml:space="preserve"
       style="font-style:normal;font-weight:normal;font-size:40px;line-height:125%;font-family:sans-serif;letter-spacing:0px;word-spacing:0px;fill:#41434a;fill-opacity:1;stroke:none;stroke-width:1px;stroke-linecap:butt;stroke-linejoin:miter;stroke-opacity:1"
       x="223.76276"
       y="1049.9509"
       id="text4172-1"
       sodipodi:linespacing="125%"
       inkscape:export-xdpi="90"
       inkscape:export-ydpi="90"><tspan
         sodipodi:role="line"
         id="tspan4174-3"
         x="223.76276"
         y="1049.9509"
         style="font-size:35px;fill:#41434a;fill-opacity:1">LOGO</tspan></text>
  </g>
</svg>
